<svg width="80" height="22" viewBox="0 0 80 22" fill="none" xmlns="http://www.w3.org/2000/svg">
<path d="M75.7524 0.425537H79.1882V14.4009H75.7524V0.425537ZM60.5234 11.708C62.6128 10.8026 64.0521 9.80434 64.9807 8.62038L61.3592 9.03825L60.9413 6.18282L66.2807 5.9971C66.3736 5.62566 66.4432 5.23101 66.5129 4.81314H61.7538V1.9345H70.088C70.088 3.44347 69.9487 4.81314 69.6701 6.08996H71.2719V0.750545H74.6381V12.5437H71.2719V8.94539H68.579C67.395 11.1276 65.3753 12.8687 62.2413 14.2616L60.5234 11.708ZM63.2628 18.6724C68.3468 18.0456 69.8558 15.5616 69.8558 13.5884V13.333H73.4541V13.5884C73.4541 15.5616 74.9631 18.0456 80.0007 18.6724L78.6542 21.5046C75.2184 21.0171 72.9434 19.6474 71.6433 17.8367C70.3665 19.6474 68.0915 21.0171 64.6325 21.5046L63.2628 18.6724Z" fill="black"/>
<path d="M41.6016 2.09723H52.559V5.0223H45.1999V7.94737H51.6072V10.7564H45.1999V14.0529C48.0089 14.0297 50.4696 13.9136 53.209 13.5422L53.5108 16.3976C50.2143 16.8851 47.1499 16.9547 43.5052 16.9547H41.6016V2.09723ZM54.6947 21.5745V0.448975H58.3395V21.5745H54.6947Z" fill="black"/>
<path d="M20.3125 11.5923H28.043V10.478H22.634V4.30283H33.5914V3.49031H22.6108V0.77417H37.1665V6.83325H26.2091V7.76184H37.5611V10.478H31.6878V11.5923H39.4183V14.4709H20.3125V11.5923ZM22.4018 18.2782V15.3995H37.3058V21.5747H33.6843V18.2782H22.4018Z" fill="#FF9900"/>
<path d="M2.39113 0.796631H5.96622V1.86451H13.1164V0.796631H16.7147V7.92359H2.39113V0.796631ZM0 11.5451V8.71289H19.1058V11.5451H0ZM2.11255 14.9809V12.3576H16.854V18.0917H5.71085V18.8114H17.3879V21.4811H2.13577V15.6309H13.2789V14.9809H2.11255ZM5.96622 5.30031H13.1164V4.48779H5.96622V5.30031Z" fill="#FF9900"/>
</svg>
