<svg width="24" height="24" viewBox="0 0 24 24" fill="none" xmlns="http://www.w3.org/2000/svg">
<mask id="mask0_151_3370" style="mask-type:alpha" maskUnits="userSpaceOnUse" x="0" y="0" width="24" height="24">
<rect width="24" height="24" fill="#D9D9D9"/>
</mask>
<g mask="url(#mask0_151_3370)">
<path d="M15.7273 13.5455L14.4091 12.2273C14.5455 11.5152 14.3409 10.8485 13.7955 10.2273C13.25 9.60606 12.5455 9.36364 11.6818 9.5L10.3636 8.18182C10.6212 8.06061 10.8826 7.9697 11.1477 7.90909C11.4129 7.84849 11.697 7.81818 12 7.81818C13.1364 7.81818 14.1023 8.21591 14.8977 9.01136C15.6932 9.80682 16.0909 10.7727 16.0909 11.9091C16.0909 12.2121 16.0606 12.4962 16 12.7614C15.9394 13.0265 15.8485 13.2879 15.7273 13.5455ZM18.6364 16.4091L17.3182 15.1364C17.8939 14.697 18.4053 14.2159 18.8523 13.6932C19.2992 13.1705 19.6818 12.5758 20 11.9091C19.2424 10.3788 18.1553 9.16288 16.7386 8.26136C15.322 7.35985 13.7424 6.90909 12 6.90909C11.5606 6.90909 11.1288 6.93939 10.7045 7C10.2803 7.06061 9.86364 7.15152 9.45455 7.27273L8.04545 5.86364C8.66667 5.60606 9.30303 5.41288 9.95455 5.28409C10.6061 5.1553 11.2879 5.09091 12 5.09091C14.2879 5.09091 16.3258 5.72349 18.1136 6.98864C19.9015 8.25379 21.197 9.89394 22 11.9091C21.6515 12.803 21.1932 13.6326 20.625 14.3977C20.0568 15.1629 19.3939 15.8333 18.6364 16.4091ZM19.0909 22L15.2727 18.2273C14.7424 18.3939 14.2083 18.5189 13.6705 18.6023C13.1326 18.6856 12.5758 18.7273 12 18.7273C9.71212 18.7273 7.67424 18.0947 5.88636 16.8295C4.09848 15.5644 2.80303 13.9242 2 11.9091C2.31818 11.1061 2.7197 10.3598 3.20455 9.67046C3.68939 8.98106 4.24242 8.36364 4.86364 7.81818L2.36364 5.27273L3.63636 4L20.3636 20.7273L19.0909 22ZM6.13636 9.09091C5.69697 9.48485 5.29545 9.91667 4.93182 10.3864C4.56818 10.8561 4.25758 11.3636 4 11.9091C4.75758 13.4394 5.8447 14.6553 7.26136 15.5568C8.67803 16.4583 10.2576 16.9091 12 16.9091C12.303 16.9091 12.5985 16.8902 12.8864 16.8523C13.1742 16.8144 13.4697 16.7727 13.7727 16.7273L12.9545 15.8636C12.7879 15.9091 12.6288 15.9432 12.4773 15.9659C12.3258 15.9886 12.1667 16 12 16C10.8636 16 9.89773 15.6023 9.10227 14.8068C8.30682 14.0114 7.90909 13.0455 7.90909 11.9091C7.90909 11.7424 7.92045 11.5833 7.94318 11.4318C7.96591 11.2803 8 11.1212 8.04545 10.9545L6.13636 9.09091Z" fill="#393939"/>
</g>
</svg>
