<svg width="24" height="24" viewBox="0 0 24 24" fill="none" xmlns="http://www.w3.org/2000/svg">
<mask id="mask0_151_3352" style="mask-type:alpha" maskUnits="userSpaceOnUse" x="0" y="0" width="24" height="24">
<rect width="24" height="24" fill="#D9D9D9"/>
</mask>
<g mask="url(#mask0_151_3352)">
<path d="M7.21739 13.9565C6.73913 13.9565 6.32971 13.7862 5.98913 13.4457C5.64855 13.1051 5.47826 12.6957 5.47826 12.2174C5.47826 11.7391 5.64855 11.3297 5.98913 10.9891C6.32971 10.6486 6.73913 10.4783 7.21739 10.4783C7.69565 10.4783 8.10507 10.6486 8.44565 10.9891C8.78623 11.3297 8.95652 11.7391 8.95652 12.2174C8.95652 12.6957 8.78623 13.1051 8.44565 13.4457C8.10507 13.7862 7.69565 13.9565 7.21739 13.9565ZM7.21739 17.4348C5.76812 17.4348 4.53623 16.9275 3.52174 15.913C2.50725 14.8986 2 13.6667 2 12.2174C2 10.7681 2.50725 9.53623 3.52174 8.52174C4.53623 7.50725 5.76812 7 7.21739 7C8.18841 7 9.06884 7.23913 9.8587 7.71739C10.6486 8.19565 11.2754 8.82609 11.7391 9.6087H19.3913L22 12.2174L18.087 16.1304L16.3478 14.8261L14.6087 16.1304L12.7609 14.8261H11.7391C11.2754 15.6087 10.6486 16.2391 9.8587 16.7174C9.06884 17.1957 8.18841 17.4348 7.21739 17.4348ZM7.21739 15.6957C8.02899 15.6957 8.74275 15.4493 9.3587 14.9565C9.97464 14.4638 10.3841 13.8406 10.587 13.087H13.3043L14.5652 13.9783L16.3478 12.6522L17.8913 13.8478L19.5217 12.2174L18.6522 11.3478H10.587C10.3841 10.5942 9.97464 9.97101 9.3587 9.47826C8.74275 8.98551 8.02899 8.73913 7.21739 8.73913C6.26087 8.73913 5.44203 9.07971 4.76087 9.76087C4.07971 10.442 3.73913 11.2609 3.73913 12.2174C3.73913 13.1739 4.07971 13.9928 4.76087 14.6739C5.44203 15.3551 6.26087 15.6957 7.21739 15.6957Z" fill="#393939"/>
</g>
</svg>
