<svg width="25" height="25" viewBox="0 0 25 25" fill="none" xmlns="http://www.w3.org/2000/svg">
<mask id="mask0_151_3346" style="mask-type:alpha" maskUnits="userSpaceOnUse" x="0" y="0" width="25" height="25">
<rect x="0.310547" y="0.243042" width="24" height="24" fill="#D9D9D9"/>
</mask>
<g mask="url(#mask0_151_3346)">
<path d="M12.3105 12.243C11.2105 12.243 10.2689 11.8514 9.48555 11.068C8.70221 10.2847 8.31055 9.34304 8.31055 8.24304C8.31055 7.14304 8.70221 6.20138 9.48555 5.41804C10.2689 4.63471 11.2105 4.24304 12.3105 4.24304C13.4105 4.24304 14.3522 4.63471 15.1355 5.41804C15.9189 6.20138 16.3105 7.14304 16.3105 8.24304C16.3105 9.34304 15.9189 10.2847 15.1355 11.068C14.3522 11.8514 13.4105 12.243 12.3105 12.243ZM4.31055 20.243V17.443C4.31055 16.8764 4.45638 16.3555 4.74805 15.8805C5.03971 15.4055 5.42721 15.043 5.91055 14.793C6.94388 14.2764 7.99388 13.8889 9.06055 13.6305C10.1272 13.3722 11.2105 13.243 12.3105 13.243C13.4105 13.243 14.4939 13.3722 15.5605 13.6305C16.6272 13.8889 17.6772 14.2764 18.7105 14.793C19.1939 15.043 19.5814 15.4055 19.873 15.8805C20.1647 16.3555 20.3105 16.8764 20.3105 17.443V20.243H4.31055ZM6.31055 18.243H18.3105V17.443C18.3105 17.2597 18.2647 17.093 18.173 16.943C18.0814 16.793 17.9605 16.6764 17.8105 16.593C16.9105 16.143 16.0022 15.8055 15.0855 15.5805C14.1689 15.3555 13.2439 15.243 12.3105 15.243C11.3772 15.243 10.4522 15.3555 9.53555 15.5805C8.61888 15.8055 7.71055 16.143 6.81055 16.593C6.66055 16.6764 6.53971 16.793 6.44805 16.943C6.35638 17.093 6.31055 17.2597 6.31055 17.443V18.243ZM12.3105 10.243C12.8605 10.243 13.3314 10.0472 13.723 9.65554C14.1147 9.26388 14.3105 8.79304 14.3105 8.24304C14.3105 7.69304 14.1147 7.22221 13.723 6.83054C13.3314 6.43888 12.8605 6.24304 12.3105 6.24304C11.7605 6.24304 11.2897 6.43888 10.898 6.83054C10.5064 7.22221 10.3105 7.69304 10.3105 8.24304C10.3105 8.79304 10.5064 9.26388 10.898 9.65554C11.2897 10.0472 11.7605 10.243 12.3105 10.243Z" fill="#393939"/>
</g>
</svg>
