<svg width="24" height="24" viewBox="0 0 24 24" fill="none" xmlns="http://www.w3.org/2000/svg">
<mask id="mask0_151_3361" style="mask-type:alpha" maskUnits="userSpaceOnUse" x="0" y="0" width="24" height="24">
<rect width="24" height="24" fill="#D9D9D9"/>
</mask>
<g mask="url(#mask0_151_3361)">
<path d="M12 15.9091C13.1364 15.9091 14.1023 15.5114 14.8977 14.7159C15.6932 13.9205 16.0909 12.9545 16.0909 11.8182C16.0909 10.6818 15.6932 9.71591 14.8977 8.92045C14.1023 8.125 13.1364 7.72727 12 7.72727C10.8636 7.72727 9.89773 8.125 9.10227 8.92045C8.30682 9.71591 7.90909 10.6818 7.90909 11.8182C7.90909 12.9545 8.30682 13.9205 9.10227 14.7159C9.89773 15.5114 10.8636 15.9091 12 15.9091ZM12 14.2727C11.3182 14.2727 10.7386 14.0341 10.2614 13.5568C9.78409 13.0795 9.54545 12.5 9.54545 11.8182C9.54545 11.1364 9.78409 10.5568 10.2614 10.0795C10.7386 9.60227 11.3182 9.36364 12 9.36364C12.6818 9.36364 13.2614 9.60227 13.7386 10.0795C14.2159 10.5568 14.4545 11.1364 14.4545 11.8182C14.4545 12.5 14.2159 13.0795 13.7386 13.5568C13.2614 14.0341 12.6818 14.2727 12 14.2727ZM12 18.6364C9.78788 18.6364 7.77273 18.0189 5.95455 16.7841C4.13636 15.5492 2.81818 13.8939 2 11.8182C2.81818 9.74242 4.13636 8.08712 5.95455 6.85227C7.77273 5.61742 9.78788 5 12 5C14.2121 5 16.2273 5.61742 18.0455 6.85227C19.8636 8.08712 21.1818 9.74242 22 11.8182C21.1818 13.8939 19.8636 15.5492 18.0455 16.7841C16.2273 18.0189 14.2121 18.6364 12 18.6364ZM12 16.8182C13.7121 16.8182 15.2841 16.3674 16.7159 15.4659C18.1477 14.5644 19.2424 13.3485 20 11.8182C19.2424 10.2879 18.1477 9.07197 16.7159 8.17045C15.2841 7.26894 13.7121 6.81818 12 6.81818C10.2879 6.81818 8.71591 7.26894 7.28409 8.17045C5.85227 9.07197 4.75758 10.2879 4 11.8182C4.75758 13.3485 5.85227 14.5644 7.28409 15.4659C8.71591 16.3674 10.2879 16.8182 12 16.8182Z" fill="#393939"/>
</g>
</svg>
